<?xml version="1.0" encoding="UTF-8" standalone="no"?>
<svg
   xmlns:dc="http://purl.org/dc/elements/1.1/"
   xmlns:cc="http://creativecommons.org/ns#"
   xmlns:rdf="http://www.w3.org/1999/02/22-rdf-syntax-ns#"
   xmlns:svg="http://www.w3.org/2000/svg"
   xmlns="http://www.w3.org/2000/svg"
   xmlns:sodipodi="http://sodipodi.sourceforge.net/DTD/sodipodi-0.dtd"
   xmlns:inkscape="http://www.inkscape.org/namespaces/inkscape"
   width="104"
   height="102"
   version="1.1"
   id="svg4"
   sodipodi:docname="bg-pattern-quotation.svg"
   inkscape:version="1.0 (4035a4fb49, 2020-05-01)">
  <metadata
     id="metadata10">
    <rdf:RDF>
      <cc:Work
         rdf:about="">
        <dc:format>image/svg+xml</dc:format>
        <dc:type
           rdf:resource="http://purl.org/dc/dcmitype/StillImage" />
        <dc:title />
      </cc:Work>
    </rdf:RDF>
  </metadata>
  <defs
     id="defs8" />
  <sodipodi:namedview
     inkscape:document-rotation="0"
     pagecolor="#ffffff"
     bordercolor="#666666"
     borderopacity="1"
     objecttolerance="10"
     gridtolerance="10"
     guidetolerance="10"
     inkscape:pageopacity="0"
     inkscape:pageshadow="2"
     inkscape:window-width="1920"
     inkscape:window-height="986"
     id="namedview6"
     showgrid="false"
     inkscape:zoom="7.8431373"
     inkscape:cx="52"
     inkscape:cy="56.1"
     inkscape:window-x="-11"
     inkscape:window-y="-11"
     inkscape:window-maximized="1"
     inkscape:current-layer="svg4" />
  <path
     d="M104 102V59.727H84.114c0-5.871.689-11.182 2.068-15.933 1.379-4.75 3.42-9.287 6.125-13.61C95.01 25.86 98.909 22.257 104 19.375V0c-9.758 4.27-17.712 9.874-23.864 16.813-6.151 6.939-10.712 14.545-13.681 22.818C63.485 47.904 62 59.941 62 75.74V102h42zm-62 0V59.727H22.114c0-5.871.689-11.182 2.068-15.933 1.379-4.75 3.42-9.287 6.125-13.61C33.01 25.86 36.909 22.257 42 19.375V0c-9.652 4.27-17.58 9.874-23.784 16.813C12.01 23.752 7.424 31.358 4.455 39.631 1.485 47.904 0 59.941 0 75.74V102h42z"
     fill="#A775F1"
     fill-rule="nonzero"
     id="path2"
     style="fill:#502d16" />
</svg>
